<?xml version="1.0" encoding="utf-8"?>
<svg viewBox="0 0 500 500" xmlns="http://www.w3.org/2000/svg">
  <defs/>
  <g id="layer1" transform="matrix(0, -0.999994, 1.000006, 0, -99.517195, -552.302479)" style="transform-origin: 425.663px 802.303px;">
    <path style="fill:#b3b3b3;fill-opacity:1;fill-rule:nonzero;stroke:none" d="m 504.92791,759.56993 -45.5343,36.90585 0,11.56751 45.5343,36.90585 c 0,0 204.89593,-6.05109 276.81967,-45.31527 -91.3591,-43.1988 -276.81967,-40.06394 -276.81967,-40.06394 z" id="path7719"/>
    <path id="path7721" d="m 525.99521,758.79533 -48.02579,-1.97955 -34.85746,-16.52501 -266.63787,0 -46.21837,0 -36.406679,0 c 0,0 -4.677494,13.728 -14.459384,3.27057 l 0,-4.21732 -9.811722,0 0,125.91711 9.811722,0 0,-4.56158 c 8.574918,-12.89546 14.459384,3.52877 14.459384,3.52877 l 36.406679,0 312.85624,0 34.85746,-16.52501 48.02579,-1.97957 0,-86.92841 z" style="fill:#ff7f2a;fill-opacity:1;fill-rule:nonzero;stroke:none"/>
  </g>
</svg>